<svg fill="none" height="40" viewBox="0 0 40 40" width="40" xmlns="http://www.w3.org/2000/svg"><path d="m15 8.33333v-1.66666c0-.92048.7462-1.66667 1.6667-1.66667h6.6667c.9204 0 1.6666.74619 1.6666 1.66667v1.66666m-10 23.33337v1.6666c0 .9205.7462 1.6667 1.6667 1.6667h6.6667c.9204 0 1.6666-.7462 1.6666-1.6667v-1.6666m4.1667-16.6667v1.6667m0 3.3333v3.3333m-18.3333-3.3333v5m4.1666-13.3333h10c1.841 0 3.3334 1.4923 3.3334 3.3333v10c0 1.8409-1.4924 3.3333-3.3334 3.3333h-10c-1.8409 0-3.3333-1.4924-3.3333-3.3333v-10c0-1.841 1.4924-3.3333 3.3333-3.3333z" stroke="#000" stroke-linecap="round" stroke-linejoin="round" stroke-width="2"/></svg>