<svg width="24" height="24" viewBox="0 0 24 24" fill="none" xmlns="http://www.w3.org/2000/svg">
<path d="M5.69421 6.43046C15.5426 5.09322 17.9696 5.25734 19.5001 7.00012C21.0305 8.74291 20.6722 14.4882 18.8832 16.0872C17.0952 17.6862 9.33021 17.8382 6.87021 16.0872C4.27121 14.2362 5.77921 8.54222 5.69421 5.09322C5.74521 3.16322 3.65021 2.85022 3.65021 2.85022" stroke="white" stroke-width="1.5" stroke-linecap="round" stroke-linejoin="round"/>
<path d="M14.1561 10.7198H16.9291" stroke="white" stroke-width="1.5" stroke-linecap="round" stroke-linejoin="round"/>
<path fill-rule="evenodd" clip-rule="evenodd" d="M7.26401 20.1276C7.56401 20.1276 7.80801 20.3716 7.80801 20.6716C7.80801 20.9726 7.56401 21.2166 7.26401 21.2166C6.96301 21.2166 6.71901 20.9726 6.71901 20.6716C6.71901 20.3716 6.96301 20.1276 7.26401 20.1276Z" fill="white" stroke="white" stroke-width="1.5" stroke-linecap="round" stroke-linejoin="round"/>
<path fill-rule="evenodd" clip-rule="evenodd" d="M17.5955 20.1276C17.8965 20.1276 18.1405 20.3716 18.1405 20.6716C18.1405 20.9726 17.8965 21.2166 17.5955 21.2166C17.2955 21.2166 17.0515 20.9726 17.0515 20.6716C17.0515 20.3716 17.2955 20.1276 17.5955 20.1276Z" fill="white" stroke="white" stroke-width="1.5" stroke-linecap="round" stroke-linejoin="round"/>
</svg>
