<svg width="28" height="34" viewBox="0 0 28 34" fill="none" xmlns="http://www.w3.org/2000/svg">
<path d="M5.66699 8.66672V5.33339C5.66701 4.36818 5.9464 3.42362 6.47143 2.6137C6.99646 1.80379 7.74469 1.16315 8.6258 0.769121C9.50691 0.375089 10.4832 0.244506 11.4369 0.393135C12.3906 0.541764 13.2809 0.963251 14.0003 1.60672C14.7197 0.963251 15.61 0.541764 16.5637 0.393135C17.5174 0.244506 18.4937 0.375089 19.3748 0.769121C20.256 1.16315 21.0042 1.80379 21.5292 2.6137C22.0543 3.42362 22.3336 4.36818 22.3337 5.33339V8.66672H24.8337C25.4967 8.66672 26.1326 8.93011 26.6014 9.39895C27.0703 9.86779 27.3337 10.5037 27.3337 11.1667V27.8417C27.3337 29.3866 26.72 30.8682 25.6276 31.9606C24.5352 33.053 23.0535 33.6667 21.5087 33.6667H7.33366C5.56555 33.6667 3.86986 32.9643 2.61961 31.7141C1.36937 30.4639 0.666992 28.7682 0.666992 27.0001V11.1667C0.666992 10.5037 0.930384 9.86779 1.39922 9.39895C1.86807 8.93011 2.50395 8.66672 3.16699 8.66672H5.66699ZM16.7253 31.1667C16.0454 30.1914 15.6818 29.0306 15.6837 27.8417V11.1667H3.16699V27.0001C3.16699 27.5472 3.27477 28.089 3.48416 28.5946C3.69356 29.1001 4.00047 29.5594 4.38738 29.9463C4.77429 30.3332 5.23362 30.6402 5.73915 30.8496C6.24467 31.0589 6.78648 31.1667 7.33366 31.1667H16.7253ZM13.167 8.66672V5.33339C13.167 4.67035 12.9036 4.03446 12.4348 3.56562C11.9659 3.09678 11.33 2.83339 10.667 2.83339C10.004 2.83339 9.36807 3.09678 8.89923 3.56562C8.43038 4.03446 8.16699 4.67035 8.16699 5.33339V8.66672H13.167ZM15.667 8.66672H19.8337V5.33339C19.8337 4.81878 19.6749 4.31669 19.379 3.89566C19.0832 3.47463 18.6645 3.15517 18.1803 2.98089C17.6961 2.8066 17.1699 2.78599 16.6736 2.92186C16.1772 3.05773 15.7349 3.34346 15.407 3.74005C15.5753 4.24005 15.667 4.77672 15.667 5.33339V8.66672ZM18.1837 27.8417C18.1837 28.7236 18.534 29.5693 19.1575 30.1929C19.7811 30.8164 20.6268 31.1667 21.5087 31.1667C22.3905 31.1667 23.2362 30.8164 23.8598 30.1929C24.4833 29.5693 24.8337 28.7236 24.8337 27.8417V11.1667H18.1837V27.8417Z" fill="white"/>
</svg>
